<?xml version="1.0" encoding="UTF-8"?>
<svg id="Layer_1" data-name="Layer 1" xmlns="http://www.w3.org/2000/svg" viewBox="0 0 122.85 122.81">
  <defs>
    <style>
      .cls-1 {
        fill: #6882ff;
      }
    </style>
  </defs>
  <path class="cls-1" d="m122.85,61.45h0C122.88,27.55,95.42.03,61.52,0c-.02,0-.05,0-.07,0h0C27.55-.04.04,27.41,0,61.31c0,.04,0,.08,0,.12H0c-.02,33.88,27.44,61.36,61.32,61.38.03,0,.05,0,.08,0h0c33.88.02,61.36-27.42,61.38-61.3,0-.03,0-.07,0-.1l.07.04Zm-61.41,32.77l-31-34.32h19.81v-23.9h22.37v23.89h19.78l-31,34.33h.04Z"/>
</svg>